
Open SVG
Paste markup
Demo
Contribute
About
Powered by the incredible SVGO


769 bytes → 640 bytes 83.22%
<svg width="50" height="50" fill="none" xmlns="http://www.w3.org/2000/svg">
  <g clip-path="url(#clip0)">
    <g opacity=".85" filter="url(#filter0_f)">
      <rect y="25" width="50" height="25" rx="12.5" fill="#4DADF7"/>
    </g>
    <rect width="50" height="50" rx="19" fill="#4DADF7"/>
    <path d="M30.57 19.43h.86c.16 0 .28-.13.28-.29v-.57a.28.28 0 00-.28-.28H18.29a.28.28 0 00-.29.28v.57c0 .16.13.29.29.29h.85c0 3.3 1.58 5.7 3.33 6.86-1.75 1.16-3.33 3.55-3.33 6.85h-.85a.28.28 0 00-.29.29V34c0 .16.13.29.29.29h13.14c.16 0 .28-.13.28-.29v-.57a.28.28 0 00-.28-.29h-.86c0-3.3-1.58-5.7-3.33-6.85 1.75-1.16 3.33-3.56 3.33-6.86zm-1.14 0c0 1.3-.3 2.45-.76 3.43h-7.63a7.92 7.92 0 01-.75-3.43h9.14zm-.51 10.86h-8.13a5.92 5.92 0 013.04-3.43h2.05a5.92 5.92 0 013.04 3.43z" fill="#fff"/>
  </g>
  <defs>
    <clipPath id="clip0">
      <path fill="#fff" d="M0 0h50v50H0z"/>
    </clipPath>
    <filter id="filter0_f" x="-27.18" y="-2.18" width="104.37" height="79.37" filterUnits="userSpaceOnUse" color-interpolation-filters="sRGB">
      <feFlood flood-opacity="0" result="BackgroundImageFix"/>
      <feBlend in="SourceGraphic" in2="BackgroundImageFix" result="shape"/>
      <feGaussianBlur stdDeviation="13.59" result="effect1_foregroundBlur"/>
    </filter>
  </defs>
</svg>