<svg width="50" height="50" fill="none" xmlns="http://www.w3.org/2000/svg">
  <g clip-path="url(#clip0)">
    <g opacity=".848" filter="url(#filter0_f)">
      <rect y="25" width="50" height="25" rx="12.5" fill="#FAB005"/>
    </g>
    <rect width="50" height="50" rx="19" fill="#FAB005"/>
    <path d="M25.482 24.643l1.17.544 1.74-.517v-1.215c0-2.062-1.74-3.714-3.82-3.714-2.072 0-3.822 1.643-3.822 3.688v5.535c0 .51-.41.911-.91.911s-.911-.402-.911-.91v-2.34H16V29a3.83 3.83 0 003.83 3.83c2.099 0 3.83-1.687 3.83-3.776v-5.465c0-.5.411-.91.911-.91s.911.41.911.91v1.054zm4.732 1.982v2.455c0 .5-.41.902-.91.902s-.911-.402-.911-.902v-2.41l-1.741.517-1.17-.544v2.393c0 2.098 1.723 3.794 3.83 3.794a3.83 3.83 0 003.83-3.83v-2.375h-2.928z" fill="#fff"/>
  </g>
  <defs>
    <clipPath id="clip0">
      <path fill="#fff" d="M0 0h50v50H0z"/>
    </clipPath>
    <filter id="filter0_f" x="-27.183" y="-2.183" width="104.366" height="79.366" filterUnits="userSpaceOnUse" color-interpolation-filters="sRGB">
      <feFlood flood-opacity="0" result="BackgroundImageFix"/>
      <feBlend in="SourceGraphic" in2="BackgroundImageFix" result="shape"/>
      <feGaussianBlur stdDeviation="13.591" result="effect1_foregroundBlur"/>
    </filter>
  </defs>
</svg>